<svg width="0" height="0" class="hidden">
    <symbol fill="none" xmlns="http://www.w3.org/2000/svg" viewBox="0 0 60 60" id="target">
        <path d="M38.2887 22.7234V15.8298L45.433 8.93616L47.8145 13.5319L52.5774 15.8298L45.433 22.7234H38.2887ZM38.2887 22.7234L28.7629 31.9147M52.5774 31.9149C52.5774 44.6056 41.9152 54.8936 28.7629 54.8936C15.6106 54.8936 4.94849 44.6056 4.94849 31.9149C4.94849 19.2241 15.6106 8.93616 28.7629 8.93616M40.6701 31.9149C40.6701 38.2602 35.339 43.4042 28.7629 43.4042C22.1868 43.4042 16.8557 38.2602 16.8557 31.9149C16.8557 25.5695 22.1868 20.4255 28.7629 20.4255"
              stroke="white" stroke-width="4" stroke-linecap="round" stroke-linejoin="round"></path>
    </symbol>
    <symbol fill="none" xmlns="http://www.w3.org/2000/svg" viewBox="0 0 60 60" id="heart">
        <path fill-rule="evenodd" clip-rule="evenodd"
              d="M30 15.0005C25.5015 9.75792 17.9844 8.13775 12.3481 12.9384C6.7117 17.739 5.91817 25.7652 10.3444 31.443C14.0246 36.1635 25.162 46.1198 28.8122 49.3423C29.2205 49.7028 29.4247 49.883 29.663 49.9538C29.8707 50.0155 30.0982 50.0155 30.3062 49.9538C30.5445 49.883 30.7485 49.7028 31.157 49.3423C34.8072 46.1198 45.9445 36.1635 49.6247 31.443C54.051 25.7652 53.3543 17.6885 47.621 12.9384C41.8878 8.18825 34.4985 9.75792 30 15.0005Z"
              stroke="white" stroke-width="4" stroke-linecap="round" stroke-linejoin="round"></path>
    </symbol>
    <symbol fill="none" xmlns="http://www.w3.org/2000/svg" viewBox="0 0 75 75" id="teamwork-job">
        <path d="M21.2056 43.5883C20.2215 42.538 18.8314 41.9355 17.3923 41.9355H13.9571C12.5177 41.9355 11.1277 42.5379 10.1438 43.5883C9.15957 44.6388 8.64878 46.065 8.74238 47.5015L8.89502 49.8426L9.25156 55.3094C9.39526 57.514 10.6369 59.4658 12.5727 60.5306C13.5439 61.0647 14.6094 61.3319 15.6748 61.3319C16.7401 61.3319 17.8057 61.0647 18.7769 60.5306C20.7127 59.4658 21.9544 57.514 22.098 55.3094L22.5053 49.0623L22.6073 47.5014C22.7008 46.0649 22.19 44.6388 21.2056 43.5883ZM11.7239 47.3071C11.6834 46.683 11.8963 46.0877 12.3241 45.6315C12.7515 45.1751 13.3315 44.9238 13.9571 44.9238H16.3158L15.8964 46.0421C15.6824 46.3465 14.6359 47.6139 11.7755 48.0936L11.7239 47.3071ZM19.1161 55.1149C19.0392 56.296 18.3739 57.3419 17.3366 57.9123C16.296 58.4847 15.0534 58.4847 14.0128 57.9123C12.9756 57.3419 12.3102 56.296 12.2333 55.1149L11.9705 51.085C14.4071 50.727 16.0133 49.8926 17.0292 49.1039C17.2098 49.2293 17.4087 49.3481 17.6252 49.4599C18.0478 49.6783 18.6477 49.8941 19.4422 50.1129L19.1161 55.1149ZM18.997 46.8053C18.9336 46.7726 18.8815 46.7427 18.835 46.7149L19.1744 45.8098C19.4498 46.1704 19.6067 46.5984 19.6277 47.0511C19.2695 46.9339 19.0836 46.8503 18.997 46.8053Z"
              fill="#1381ED"></path>
        <path d="M31.3251 73.2396L30.7564 70.0992C30.0492 66.195 26.9559 63.079 23.0595 62.3452C22.4714 62.2343 21.8696 62.1782 21.2715 62.1782H19.5583C19.162 62.1782 18.7822 62.3357 18.5018 62.6158L15.6748 65.4428L12.8478 62.6158C12.5676 62.3357 12.1876 62.1782 11.7913 62.1782H10.0779C9.47967 62.1782 8.87806 62.2343 8.28992 62.3452C4.39343 63.079 1.30041 66.195 0.593181 70.0991L0.0239418 73.2396C-0.0550134 73.6754 0.0634927 74.1236 0.347234 74.4635C0.631121 74.8033 1.05124 74.9997 1.49406 74.9997H29.8548C30.2976 74.9997 30.7176 74.8033 31.0016 74.4635C31.2854 74.1236 31.4039 73.6752 31.3251 73.2396ZM3.28337 72.012L3.53342 70.6319C4.02151 67.938 6.1552 65.7879 8.8429 65.2818C9.24925 65.2053 9.66483 65.1665 10.0781 65.1665H11.1725L14.6182 68.6123C15.2018 69.1956 16.1475 69.1956 16.7313 68.6123L20.177 65.1665H21.2714C21.6846 65.1665 22.1001 65.2053 22.5066 65.2818C25.1943 65.7879 27.3281 67.938 27.8162 70.632L28.0661 72.012H3.28337Z"
              fill="#1381ED"></path>
        <path d="M63.1787 43.5883C62.1946 42.538 60.8045 41.9355 59.3654 41.9355H55.9304C54.491 41.9357 53.101 42.5382 52.1169 43.5885C51.1327 44.6389 50.6219 46.0651 50.7155 47.5017L50.8682 49.8426V49.8428L51.2247 55.3095C51.3684 57.514 52.61 59.4658 54.5458 60.5306C55.517 61.0647 56.5825 61.3319 57.6479 61.3319C58.7133 61.3319 59.7788 61.0647 60.75 60.5306C62.6858 59.4658 63.9276 57.514 64.0711 55.3095L64.4785 49.0623L64.5804 47.5014C64.6738 46.0649 64.163 44.6388 63.1787 43.5883ZM53.6971 47.3073C53.6565 46.6831 53.8695 46.0878 54.2972 45.6316C54.7247 45.1752 55.3046 44.924 55.9302 44.924H58.2888L57.8694 46.0422C57.6554 46.3466 56.6089 47.614 53.7485 48.0938L53.6971 47.3073ZM61.0893 55.1151C61.0122 56.2962 60.3469 57.3421 59.3098 57.9125C58.2692 58.4848 57.0265 58.4848 55.9859 57.9125C54.9488 57.3421 54.2833 56.2962 54.2064 55.1151L53.9436 51.0851C56.3802 50.7271 57.9866 49.8927 59.0025 49.1041C59.1831 49.2295 59.382 49.3483 59.5985 49.46C60.0211 49.6784 60.621 49.8942 61.4155 50.1131L61.0893 55.1151ZM60.9702 46.8054C60.9068 46.7728 60.8546 46.7429 60.8083 46.715L61.1477 45.8099C61.4228 46.1706 61.5799 46.5986 61.6008 47.0512C61.2428 46.934 61.0569 46.8504 60.9702 46.8054Z"
              fill="#1381ED"></path>
        <path d="M73.2984 73.2397L72.7293 70.0992C72.0222 66.195 68.9289 63.079 65.0325 62.3452C64.4444 62.2343 63.8426 62.1782 63.2445 62.1782H61.5313C61.135 62.1782 60.7552 62.3357 60.4748 62.6158L57.6478 65.4428L54.8208 62.6158C54.5406 62.3357 54.1606 62.1782 53.7643 62.1782H52.0509C51.4527 62.1782 50.8511 62.2345 50.2629 62.3452C46.3666 63.079 43.2734 66.195 42.5662 70.0991L41.9971 73.2396C41.9181 73.6754 42.0366 74.1236 42.3204 74.4635C42.6043 74.8033 43.0244 74.9999 43.4672 74.9999H71.828C72.2708 74.9999 72.6907 74.8034 72.9748 74.4635C73.2588 74.1239 73.3772 73.6755 73.2984 73.2397ZM45.2564 72.012L45.5064 70.632C45.9945 67.9381 48.1282 65.788 50.8159 65.2819C51.2223 65.2055 51.6378 65.1667 52.0511 65.1667H53.1455L56.5912 68.6124C57.1748 69.1957 58.1205 69.1957 58.7043 68.6124L62.15 65.1667H63.2444C63.6576 65.1667 64.0731 65.2055 64.4796 65.2819C67.1673 65.788 69.3009 67.9381 69.789 70.632L70.0391 72.012H45.2564Z"
              fill="#1381ED"></path>
        <path d="M42.1922 1.65279C41.2081 0.602345 39.8181 0 38.3787 0H34.9437C33.5043 0 32.1143 0.602345 31.1304 1.65279C30.1461 2.70323 29.6353 4.1294 29.729 5.56598L29.8816 7.90695L30.2381 13.3739C30.3818 15.5785 31.6234 17.5303 33.5592 18.5951C34.5304 19.1291 35.596 19.3962 36.6613 19.3962C37.7267 19.3962 38.7921 19.1291 39.7634 18.5951C41.6992 17.5303 42.941 15.5785 43.0845 13.3739L43.4919 7.12677L43.5939 5.56583C43.6873 4.12955 43.1765 2.70323 42.1922 1.65279ZM32.7105 5.37145C32.6699 4.74727 32.8829 4.15211 33.3105 3.69581C33.7381 3.23936 34.318 2.98814 34.9437 2.98814H37.3022L36.8828 4.1064C36.6688 4.4108 35.6223 5.67818 32.7619 6.15792L32.7105 5.37145ZM40.1027 13.1794C40.0258 14.3605 39.3603 15.4064 38.3232 15.9768C37.2824 16.5491 36.0401 16.5491 34.9993 15.9768C33.9622 15.4064 33.2967 14.3605 33.2198 13.1794L32.957 9.14943C35.3937 8.79142 36.9999 7.95705 38.0159 7.16837C38.1966 7.29377 38.3954 7.41256 38.6121 7.52433C39.0348 7.74274 39.6347 7.95851 40.4289 8.17736L40.1027 13.1794ZM39.9836 4.86959C39.9202 4.83692 39.868 4.80704 39.8216 4.77921L40.161 3.87393C40.4362 4.23473 40.5933 4.66275 40.6142 5.11539C40.2561 4.9982 40.0703 4.91441 39.9836 4.86959Z"
              fill="#1381ED"></path>
        <path d="M52.3119 31.3043L51.7429 28.1638C51.0357 24.2596 47.9424 21.1436 44.0461 20.41C43.4579 20.2991 42.8562 20.243 42.2581 20.243H40.5446C40.1484 20.243 39.7686 20.4004 39.4882 20.6805L36.6613 23.5072L33.8343 20.6802C33.5541 20.4001 33.1741 20.2427 32.7779 20.2427H31.0646C30.4663 20.2427 29.8647 20.2988 29.2766 20.4097C25.3801 21.1434 22.2871 24.2594 21.5799 28.1635L21.0108 31.304C20.9318 31.7398 21.0503 32.1881 21.334 32.5279C21.6182 32.868 22.0382 33.0646 22.481 33.0646H50.8418C51.2846 33.0646 51.7046 32.8682 51.9886 32.5283C52.2722 32.1884 52.3907 31.74 52.3119 31.3043ZM24.27 30.0766L24.5199 28.6963C25.008 26.0025 27.1417 23.8524 29.8294 23.3462C30.2358 23.2698 30.6514 23.231 31.0646 23.231H32.1591L35.6047 26.6767C36.1883 27.2602 37.134 27.2602 37.7178 26.6767L41.1634 23.231H42.2579C42.6712 23.231 43.0867 23.2698 43.4931 23.3462C46.1808 23.8525 48.3146 26.0025 48.8027 28.6965L49.0526 30.0766H24.27Z"
              fill="#1381ED"></path>
        <path d="M36.2108 35.7798C35.3858 35.7798 34.7168 36.4486 34.7168 37.2738V37.7241C34.7168 38.5492 35.3858 39.2181 36.2108 39.2181C37.0358 39.2181 37.7048 38.5492 37.7048 37.7241V37.2738C37.7048 36.4486 37.0358 35.7798 36.2108 35.7798Z"
              fill="#1381ED"></path>
        <path d="M46.7062 52.8642L37.705 47.6672V42.076C37.705 41.2509 37.036 40.582 36.211 40.582C35.386 40.582 34.717 41.2509 34.717 42.076V47.6671L25.7158 52.864C25.0012 53.2765 24.7563 54.1903 25.169 54.9049C25.4458 55.3842 25.9478 55.6521 26.4643 55.6521C26.7177 55.6521 26.9747 55.5875 27.2098 55.4517L36.211 50.2547L45.2122 55.4517C45.4474 55.5875 45.7043 55.6521 45.9576 55.6521C46.474 55.6521 46.9761 55.3842 47.253 54.9049C47.6656 54.1903 47.4209 53.2767 46.7062 52.8642Z"
              fill="#1381ED"></path>
    </symbol>
    <symbol fill="none" xmlns="http://www.w3.org/2000/svg" viewBox="0 0 75 75" id="list">
        <path d="M63.1756 0H11.8243C10.9992 0 10.3303 0.668848 10.3303 1.49399V73.506C10.3303 74.3312 10.9992 75 11.8243 75H50.8715C51.2677 75 51.6477 74.8425 51.9279 74.5625L64.2322 62.2581C64.5122 61.978 64.6697 61.598 64.6697 61.2016V1.49399C64.6697 0.668848 64.0007 0 63.1756 0ZM52.3627 69.9019L52.3562 62.6864L59.5716 62.693L52.3627 69.9019ZM61.6817 59.7069L50.8621 59.6971C50.8617 59.6971 50.8612 59.6971 50.8608 59.6971C50.4645 59.6971 50.0846 59.8545 49.8043 60.1346C49.5238 60.4151 49.3664 60.7957 49.3668 61.1925L49.3765 72.012H13.3183V2.98799H61.6817V59.7069Z"
              fill="#1381ED"></path>
        <path d="M28.4527 12.5679C27.8692 11.9845 26.9232 11.9845 26.3398 12.5681L21.9431 16.9648L20.8513 15.8729C20.2679 15.2895 19.3219 15.2895 18.7384 15.8729C18.155 16.4564 18.1548 17.4024 18.7384 17.9858L20.8865 20.134C21.1665 20.4141 21.5467 20.5716 21.9429 20.5716C22.3392 20.5716 22.7191 20.4141 22.9994 20.134L28.4525 14.6808C29.036 14.0975 29.036 13.1514 28.4527 12.5679Z"
              fill="#1381ED"></path>
        <path d="M55.2051 15.5454H54.6812C53.8561 15.5454 53.1873 16.2143 53.1873 17.0394C53.1873 17.8646 53.8561 18.5334 54.6812 18.5334H55.2051C56.0302 18.5334 56.6991 17.8646 56.6991 17.0394C56.6991 16.2143 56.0302 15.5454 55.2051 15.5454Z"
              fill="#1381ED"></path>
        <path d="M49.9004 15.5454H33.1722C32.3471 15.5454 31.6782 16.2143 31.6782 17.0394C31.6782 17.8646 32.3471 18.5334 33.1722 18.5334H49.9004C50.7256 18.5334 51.3944 17.8646 51.3944 17.0394C51.3944 16.2143 50.7256 15.5454 49.9004 15.5454Z"
              fill="#1381ED"></path>
        <path d="M28.4527 27.0308C27.8692 26.4474 26.9232 26.4474 26.3398 27.031L21.9431 31.4277L20.8513 30.3358C20.2679 29.7524 19.3219 29.7524 18.7384 30.3358C18.155 30.9193 18.1548 31.8653 18.7384 32.4487L20.8865 34.5969C21.1665 34.877 21.5467 35.0344 21.9429 35.0344C22.3392 35.0344 22.7191 34.877 22.9994 34.5969L28.4525 29.1437C29.036 28.5604 29.036 27.6144 28.4527 27.0308Z"
              fill="#1381ED"></path>
        <path d="M55.2054 30.0088H33.1722C32.3471 30.0088 31.6782 30.6776 31.6782 31.5028C31.6782 32.3279 32.3471 32.9968 33.1722 32.9968H55.2054C56.0305 32.9968 56.6994 32.3279 56.6994 31.5028C56.6994 30.6776 56.0305 30.0088 55.2054 30.0088Z"
              fill="#1381ED"></path>
        <path d="M28.4527 41.4483C27.8692 40.8649 26.9232 40.8649 26.3398 41.4485L21.9431 45.8452L20.8513 44.7533C20.2679 44.1697 19.3219 44.1698 18.7384 44.7533C18.155 45.3367 18.1548 46.2827 18.7384 46.8662L20.8865 49.0144C21.1665 49.2945 21.5467 49.4519 21.9429 49.4519C22.3392 49.4519 22.7191 49.2945 22.9994 49.0144L28.4525 43.5612C29.036 42.9779 29.036 42.0319 28.4527 41.4483Z"
              fill="#1381ED"></path>
        <path d="M55.2052 44.4258H33.1722C32.3471 44.4258 31.6782 45.0946 31.6782 45.9198C31.6782 46.7449 32.3471 47.4138 33.1722 47.4138H55.2054C56.0304 47.4138 56.6992 46.7449 56.6992 45.9198C56.6992 45.0948 56.0304 44.4258 55.2052 44.4258Z"
              fill="#1381ED"></path>
    </symbol>
    <symbol fill="none" xmlns="http://www.w3.org/2000/svg" viewBox="0 0 75 75" id="conversation">
        <path d="M63.0334 13.5687H41.1664V5.92368C41.1664 5.09854 40.4976 4.42969 39.6724 4.42969H5.06382C4.23867 4.42969 3.56982 5.09854 3.56982 5.92368V26.1494C3.56982 26.9746 4.23867 27.6434 5.06382 27.6434H25.6684V32.7415C25.6684 33.3458 26.0325 33.8905 26.5906 34.1218C26.7755 34.1984 26.9696 34.2357 27.1621 34.2357C27.5508 34.2357 27.933 34.0838 28.2188 33.7981L34.3734 27.6436H35.6315V30.2038C35.6315 31.029 36.3004 31.6978 37.1255 31.6978H40.9367L45.434 36.1952C45.7199 36.481 46.1019 36.6327 46.4907 36.6327C46.6832 36.6327 46.8774 36.5954 47.0621 36.5189C47.6204 36.2876 47.9844 35.743 47.9844 35.1386V31.6977H63.0334C63.8585 31.6977 64.5274 31.0288 64.5274 30.2037V15.0627C64.5275 14.2376 63.8587 13.5687 63.0334 13.5687ZM38.1783 24.6553H33.7545V24.6554C33.3582 24.6554 32.9782 24.8129 32.698 25.093L28.6563 29.1346V26.1494C28.6563 25.3243 27.9875 24.6554 27.1623 24.6554H6.55782V7.41768H38.1783V24.6553ZM61.5394 28.7098H46.4904C45.6653 28.7098 44.9964 29.3787 44.9964 30.2038V31.5318L42.6121 29.1474C42.332 28.8673 41.9519 28.7098 41.5556 28.7098H38.6196V27.6436H39.6723C40.4974 27.6436 41.1663 26.9747 41.1663 26.1496V16.5569H61.5394V28.7098Z"
              fill="#1381ED"></path>
        <path d="M57.6574 18.8403H45.0658C44.2406 18.8403 43.5718 19.5092 43.5718 20.3343C43.5718 21.1595 44.2406 21.8283 45.0658 21.8283H57.6574C58.4826 21.8283 59.1514 21.1595 59.1514 20.3343C59.1514 19.5092 58.4826 18.8403 57.6574 18.8403Z"
              fill="#1381ED"></path>
        <path d="M57.6574 23.3267H45.0658C44.2406 23.3267 43.5718 23.9955 43.5718 24.8207C43.5718 25.6458 44.2406 26.3147 45.0658 26.3147H57.6574C58.4826 26.3147 59.1514 25.6458 59.1514 24.8207C59.1514 23.9955 58.4826 23.3267 57.6574 23.3267Z"
              fill="#1381ED"></path>
        <path d="M23.2252 36.025C22.1648 34.8932 20.6672 34.2441 19.1163 34.2441H15.3085C13.7576 34.2441 12.2601 34.8934 11.1997 36.025C10.1393 37.1567 9.58898 38.6933 9.69005 40.2409L9.85939 42.8359L10.2543 48.8958C10.4102 51.284 11.755 53.3983 13.8521 54.5516C14.9042 55.1304 16.0582 55.4197 17.2125 55.4197C18.3665 55.4197 19.5209 55.1302 20.5727 54.5516C22.6698 53.3983 24.0146 51.2838 24.1705 48.8958L24.6221 41.9712V41.9711L24.7349 40.2409C24.8355 38.6935 24.2855 37.1567 23.2252 36.025ZM12.6716 40.0464C12.6236 39.3096 12.8751 38.6069 13.38 38.0678C13.8849 37.5289 14.5697 37.2321 15.3083 37.2321H18.1566L17.5992 38.7185C17.4028 38.9996 16.1653 40.5594 12.7399 41.0942L12.6716 40.0464ZM21.1885 48.7013C21.0994 50.0661 20.331 51.2743 19.1326 51.9335C17.9301 52.5949 16.4944 52.5949 15.2919 51.9335C14.0935 51.2743 13.3251 50.0661 13.236 48.7013L12.9351 44.0866C15.7705 43.6965 17.5908 42.7224 18.7103 41.8266C18.9294 41.9867 19.1758 42.1375 19.4492 42.2785C19.9302 42.5271 20.6269 42.7735 21.5588 43.0247L21.1885 48.7013ZM20.8205 39.6239C20.6899 39.5564 20.5914 39.4963 20.5176 39.446L21.037 38.0607C21.0394 38.0631 21.0422 38.0653 21.0445 38.0678C21.5329 38.5892 21.7844 39.2636 21.7567 39.9742C21.2354 39.8147 20.9604 39.6962 20.8205 39.6239Z"
              fill="#1381ED"></path>
        <path d="M34.4007 68.81L33.7699 65.3291C32.9978 61.0671 29.6213 57.6655 25.368 56.8645C24.7255 56.7435 24.0688 56.6823 23.4161 56.6823H21.5169C21.1207 56.6823 20.7407 56.8397 20.4605 57.1198L17.2125 60.368L13.9642 57.1197C13.6841 56.8396 13.3039 56.6821 12.9077 56.6821H11.0084C10.3555 56.6821 9.69881 56.7435 9.05662 56.8644C4.8033 57.6652 1.42668 61.0667 0.654557 65.329L0.0239406 68.81C-0.0550146 69.2458 0.0634915 69.6941 0.347379 70.0339C0.631266 70.3738 1.05124 70.5702 1.49406 70.5702H32.9307C33.3735 70.5702 33.7935 70.3738 34.0774 70.0339C34.3613 69.6941 34.4795 69.2457 34.4007 68.81ZM3.28278 67.5826V67.5825L3.5945 65.8619C4.14748 62.81 6.56463 60.3744 9.60931 59.8012C10.0697 59.7145 10.5405 59.6706 11.0084 59.6706H12.2888L16.1559 63.5376C16.4359 63.8177 16.8161 63.9752 17.2123 63.9752C17.6085 63.9752 17.9885 63.8177 18.2688 63.5376L22.1357 59.6706H23.4161C23.8838 59.6706 24.3546 59.7145 24.8152 59.8012C27.8598 60.3744 30.277 62.8102 30.83 65.8619L31.1417 67.5826H3.28278Z"
              fill="#1381ED"></path>
        <path d="M63.8004 36.0248C62.74 34.8932 61.2425 34.2441 59.6915 34.2441H55.8837C54.3327 34.2441 52.8352 34.8934 51.7748 36.025C50.7145 37.1568 50.1642 38.6935 50.2652 40.2409L50.4346 42.8359L50.8298 48.8958C50.9857 51.284 52.3305 53.3983 54.4276 54.5516C55.4797 55.1304 56.6337 55.4197 57.788 55.4197C58.942 55.4197 60.0964 55.1302 61.1482 54.5516C63.2452 53.3983 64.5901 51.2838 64.746 48.8958L65.1975 41.9712L65.3102 40.2409C65.4109 38.6933 64.8607 37.1565 63.8004 36.0248ZM53.2469 40.0464C53.199 39.3096 53.4506 38.6069 53.9553 38.0678C54.4603 37.5289 55.1452 37.2321 55.8837 37.2321H58.7319L58.1745 38.7185C57.9781 38.9996 56.7406 40.5594 53.3152 41.0942L53.2469 40.0464ZM61.7637 48.7013C61.6749 50.0661 60.9065 51.2743 59.7079 51.9335C58.5054 52.5949 57.0698 52.5949 55.8673 51.9335C54.6689 51.2743 53.9004 50.0661 53.8113 48.7013L53.5105 44.0866C56.3458 43.6965 58.1662 42.7224 59.2856 41.8266C59.5048 41.9867 59.7512 42.1375 60.0242 42.2785C60.5053 42.527 61.2018 42.7734 62.1339 43.0247L61.7637 48.7013ZM61.3959 39.6239C61.2652 39.5564 61.1669 39.4963 61.093 39.446L61.6124 38.0607C61.6147 38.0631 61.6174 38.0653 61.6197 38.0677C62.1081 38.5892 62.3596 39.2636 62.3321 39.9742C61.8107 39.8147 61.5359 39.6962 61.3959 39.6239Z"
              fill="#1381ED"></path>
        <path d="M74.9761 68.8099L74.3454 65.3288C73.5733 61.0669 70.1967 57.6652 65.9434 56.8644C65.3009 56.7434 64.6444 56.6821 63.9915 56.6821H62.0923C61.6961 56.6821 61.3161 56.8396 61.0358 57.1197L57.7877 60.3678L54.5397 57.1197C54.2596 56.8396 53.8795 56.6821 53.4832 56.6821H51.5841C50.9312 56.6821 50.2743 56.7435 49.6322 56.8644C45.3788 57.6652 42.0024 61.0667 41.2302 65.329L40.5996 68.81C40.5207 69.2458 40.6392 69.6941 40.9231 70.0339C41.207 70.3738 41.6269 70.5702 42.0697 70.5702H73.5059C73.9488 70.5702 74.3687 70.3738 74.6526 70.0339C74.9365 69.6939 75.0549 69.2457 74.9761 68.8099ZM43.8585 67.5825V67.5823L44.1702 65.8617C44.7232 62.8099 47.1402 60.3743 50.185 59.8011C50.6455 59.7144 51.1162 59.6704 51.5841 59.6704H52.8645L56.7314 63.5375C57.0115 63.8175 57.3916 63.975 57.7878 63.975C58.1841 63.975 58.5641 63.8175 58.8443 63.5375L62.7113 59.6704H63.9918C64.4595 59.6704 64.9303 59.7144 65.3908 59.8011C68.4355 60.3743 70.8528 62.81 71.4056 65.8617L71.7174 67.5825H43.8585Z"
              fill="#1381ED"></path>
        <path d="M33.3798 11.4712H32.4808C31.6557 11.4712 30.9868 12.14 30.9868 12.9652C30.9868 13.7903 31.6557 14.4592 32.4808 14.4592H33.3798C34.2049 14.4592 34.8738 13.7903 34.8738 12.9652C34.8738 12.14 34.2049 11.4712 33.3798 11.4712Z"
              fill="#1381ED"></path>
        <path d="M27.2374 11.4712H11.3563C10.5312 11.4712 9.8623 12.14 9.8623 12.9652C9.8623 13.7903 10.5312 14.4592 11.3563 14.4592H27.2374C28.0626 14.4592 28.7314 13.7903 28.7314 12.9652C28.7314 12.14 28.0626 11.4712 27.2374 11.4712Z"
              fill="#1381ED"></path>
        <path d="M33.38 17.4644H11.3563C10.5312 17.4644 9.8623 18.1332 9.8623 18.9584C9.8623 19.7835 10.5312 20.4523 11.3563 20.4523H33.3798C34.205 20.4523 34.8738 19.7835 34.8738 18.9584C34.874 18.1332 34.2051 17.4644 33.38 17.4644Z"
              fill="#1381ED"></path>
    </symbol>
    <symbol fill="none" xmlns="http://www.w3.org/2000/svg" viewBox="0 0 75 75" id="trend-up">
        <path d="M7.97876 68.6619L29.2341 32.8277L43.4043 56.7172L67.0213 16.9014" stroke="#1381ED" stroke-width="6"
              stroke-miterlimit="10" stroke-linecap="square"></path>
        <path d="M46.2766 14.7886H70.0133V40.6689" stroke="#1381ED" stroke-width="6" stroke-miterlimit="10"
              stroke-linecap="square"></path>
    </symbol>
    <symbol fill="none" xmlns="http://www.w3.org/2000/svg" viewBox="0 0 75 75" id="profile">
        <path d="M28.6267 33.9687C28.3142 33.9375 27.9392 33.9375 27.5955 33.9687C20.158 33.7187 14.2517 27.625 14.2517 20.125C14.2517 12.4687 20.4392 6.25 28.1267 6.25C35.7828 6.25 42.0016 12.4687 42.0016 20.125C41.9703 27.625 36.0641 33.7187 28.6267 33.9687Z"
              stroke="#1381ED" stroke-width="5" stroke-linecap="round" stroke-linejoin="round"></path>
        <path opacity="0.4"
              d="M51.2791 12.5C57.3415 12.5 62.2165 17.4063 62.2165 23.4375C62.2165 29.3437 57.5291 34.1562 51.6853 34.375C51.4353 34.3438 51.1541 34.3438 50.8728 34.375"
              stroke="#1381ED" stroke-width="5" stroke-linecap="round" stroke-linejoin="round"></path>
        <path d="M13.0022 45.5C5.4397 50.5625 5.4397 58.8125 13.0022 63.8437C21.5959 69.5937 35.6897 69.5937 44.2834 63.8437C51.8459 58.7812 51.8459 50.5312 44.2834 45.5C35.7209 39.7813 21.6272 39.7813 13.0022 45.5Z"
              stroke="#1381ED" stroke-width="5" stroke-linecap="round" stroke-linejoin="round"></path>
        <path opacity="0.4"
              d="M57.3119 62.5C59.5619 62.0312 61.6869 61.125 63.4369 59.7812C68.3119 56.125 68.3119 50.0937 63.4369 46.4375C61.7181 45.125 59.6244 44.25 57.4056 43.75"
              stroke="#1381ED" stroke-width="5" stroke-linecap="round" stroke-linejoin="round"></path>
    </symbol>
    <symbol fill="none" xmlns="http://www.w3.org/2000/svg" viewBox="0 0 220 195" id="product-logo">
        <path fill-rule="evenodd" clip-rule="evenodd"
              d="M160.653 132.559L168.732 118.705H207.267L219.167 97.8681L195.368 56.3056H161.854L150.282 35.6906H137.292V21.7256H158.47L170.042 42.4514H187.399L163.492 0.888916H116.877V56.3056H135.763L143.732 70.1597H116.877V97.8681H141.549L153.012 77.1423H183.687L191.547 90.9964H160.981L149.518 111.722H116.877V160.267H153.994L146.134 174.121H116.877V194.847H163.492L199.298 132.559H176.482L168.513 146.413H137.292V132.559H160.653Z"
              fill="#1381ED"></path>
        <path fill-rule="evenodd" clip-rule="evenodd"
              d="M59.3466 132.559L51.2682 118.705H12.7324L0.833252 97.8681L24.6316 56.3056H58.1457L69.7174 35.6906H82.7082V21.7256H61.5299L49.9582 42.4514H32.6007L56.5082 0.888916H103.232V56.3056H84.2366L76.2674 70.1597H103.232V97.8681H78.4507L66.9883 77.1423H36.3124L28.4524 90.9964H59.0191L70.4816 111.722H103.232V160.267H66.0057L73.8657 174.121H103.232V194.847H56.5082L20.7016 132.559H43.5174L51.4866 146.413H82.7082V132.559H59.3466Z"
              fill="#669DF6"></path>
    </symbol>
    <symbol fill="none" xmlns="http://www.w3.org/2000/svg" viewBox="0 0 55 55" id="legal-aid">
        <path d="M35.1484 22.2417C35.1484 24.0249 33.7036 25.4751 31.915 25.4751C31.0288 25.4751 30.2124 25.1099 29.6323 24.5298C28.9448 25.2334 28.1768 25.8511 27.3389 26.356C28.1929 26.7105 29.0093 27.1348 29.7827 27.6182C26.4956 30.4434 24.417 34.6274 24.417 39.3003C24.417 40.1113 24.4814 40.9116 24.5996 41.6851H9.64648C9.67871 34.5522 11.1235 28.6709 17.4346 26.3291C16.6719 25.8188 17.3271 26.5601 16.6934 25.894C16.1025 26.5815 16.9404 25.4805 15.9575 25.4805C14.1743 25.4805 12.7241 24.0356 12.7241 22.2471C12.7241 20.625 13.9272 19.2769 15.4902 19.0513C15.4419 18.8472 14.8511 18.6377 14.8081 18.4229C13.8359 17.8643 13.7124 16.8169 13.7124 15.6138C13.7124 14.3677 14.4214 13.2773 15.4634 12.7456C16.7847 7.50879 21.4145 4.71582 26.8501 4.71582C29.106 7.3584 31.5337 7.58398 32.8013 12.9014C33.8433 13.4331 34.563 14.5234 34.563 15.7803C34.563 17.0317 33.8594 18.106 32.8281 18.6484C32.7852 18.7988 32.7529 18.96 32.71 19.1157C34.1118 19.4702 35.1484 20.7271 35.1484 22.2417Z"
              fill="#0B3D91"></path>
        <path d="M23.4609 42.0933H3.53955L3.54492 41.0137C3.56104 37.4687 4.65137 34.0688 6.69775 31.1899C8.14258 29.1597 9.97949 27.4893 12.1064 26.2646C11.6606 26.4258 11.1826 26.5117 10.6938 26.5117C8.38965 26.5117 6.51514 24.6372 6.51514 22.333C6.51514 21.3232 6.88037 20.3457 7.54639 19.5884C7.83105 19.2607 8.16943 18.9814 8.53467 18.7559C7.85254 17.9985 7.46045 17.0049 7.46045 15.9575C7.46045 14.5557 8.15332 13.272 9.29199 12.4985C10.8442 7.10596 15.6406 3.37842 21.1084 3.37842C23.9282 3.37842 26.5869 4.33984 28.7891 6.16064C30.7979 7.82031 32.2695 10.1138 32.9731 12.665C34.1172 13.4385 34.8101 14.7222 34.8101 16.124C34.8101 17.2036 34.3965 18.2134 33.6875 18.9761C34.7241 19.7441 35.374 20.9795 35.374 22.333C35.374 24.6372 33.4995 26.5117 31.1953 26.5117C30.438 26.5117 29.7075 26.313 29.0737 25.937C29.02 25.9854 28.9717 26.0283 28.918 26.0713C29.02 26.1304 29.1006 26.1841 29.1865 26.2432L29.2134 26.2646C29.7022 26.603 29.8257 27.269 29.4873 27.7578C29.1489 28.2466 28.4829 28.3701 27.9941 28.0317L27.9619 28.0103C27.8223 27.9136 27.6772 27.8115 26.3882 27.2798L24.4385 26.4688L26.2432 25.3677C26.9683 24.9272 27.6397 24.3901 28.2358 23.7778L28.9932 23.0044L29.7612 23.7725C30.1426 24.1538 30.6528 24.3687 31.1953 24.3687C32.3179 24.3687 33.2256 23.4556 33.2256 22.3384C33.2256 21.4092 32.5972 20.5981 31.6948 20.3672L30.6367 20.0986L30.9214 19.0459C30.9536 18.917 30.9912 18.7773 31.0234 18.6377L31.1362 18.1543L31.5767 17.9233C32.248 17.5688 32.667 16.8813 32.667 16.124C32.667 15.356 32.2427 14.6631 31.5605 14.314L31.1201 14.0884L31.0073 13.605C29.8794 8.84619 25.8188 5.52686 21.1191 5.52686C16.4946 5.52686 12.4395 8.78711 11.2686 13.46L11.1504 13.9326L10.7207 14.1528C10.0439 14.502 9.61963 15.1948 9.61963 15.9575C9.61963 16.688 10.0117 17.3647 10.6509 17.7246L11.0698 17.9663L11.1665 18.439C11.2041 18.6216 11.2471 18.8042 11.2954 18.9868L11.6016 20.147L10.4146 20.3188C9.42627 20.4639 8.67969 21.3286 8.67969 22.3276C8.67969 23.4502 9.59277 24.3579 10.71 24.3579C11.3008 24.3579 11.8647 24.1001 12.2515 23.6489L13.0303 22.7412L13.8467 23.6113C14.3945 24.1968 15.0122 24.7178 15.6729 25.1582L17.4346 26.3237L15.4526 27.0596C9.98486 29.0898 6.19287 34.1816 5.74707 39.9394H23.4717C24.0625 39.9394 24.5459 40.4228 24.5459 41.0137C24.5459 41.6045 24.0518 42.0933 23.4609 42.0933ZM51.4873 39.542C51.4873 46.2183 46.0786 51.627 39.4023 51.627C32.7261 51.627 27.3174 46.2183 27.3174 39.542C27.3174 32.8657 32.7261 27.457 39.4023 27.457C46.0786 27.457 51.4873 32.8657 51.4873 39.542ZM46.6855 39.687V36.0561C46.707 36.0024 46.7178 35.9434 46.7178 35.8843V34.7026C46.7178 34.4448 46.5083 34.23 46.2451 34.23H40.7451V32.4951C40.7451 32.2373 40.5356 32.0225 40.2725 32.0225H39.1714C38.9136 32.0225 38.6987 32.2319 38.6987 32.4951V34.23H33.1987C32.9409 34.23 32.7261 34.4395 32.7261 34.7026V35.9219C32.7207 35.9487 32.7207 35.9756 32.7207 36.0024V39.6816H30.105C30.105 41.5078 31.582 42.9849 33.4082 42.9849C35.2344 42.9849 36.7114 41.5078 36.7114 39.6816H34.6758V36.3516H38.7041V44.9937H37.0068C36.749 44.9937 36.5342 45.2031 36.5342 45.4663V46.6479C36.5342 46.9058 36.7437 47.1206 37.0068 47.1206H42.4478C42.7056 47.1206 42.9204 46.9111 42.9204 46.6479V45.4663C42.9204 45.2085 42.7109 44.9937 42.4478 44.9937H40.7505V36.3569H44.7412V39.687H42.77C42.77 41.5132 44.2471 42.9902 46.0732 42.9902C47.8994 42.9902 49.3765 41.5132 49.3765 39.687H46.6855Z"
              fill="white"></path>
        <path d="M17.2681 34.8745L15.791 34.2998C15.6031 34.2139 15.5118 33.9937 15.5977 33.8003L18.6431 26.92C18.729 26.732 18.9493 26.6407 19.1426 26.7266L20.6143 27.3067C20.8023 27.3926 20.8936 27.6128 20.8077 27.8062L17.7622 34.6866C17.6817 34.8745 17.4561 34.9605 17.2681 34.8745Z"
              fill="white"></path>
        <path d="M24.3955 34.8745L25.8672 34.2945C26.0552 34.2085 26.1465 33.9883 26.0606 33.795L23.0152 26.9146C22.9292 26.7266 22.709 26.6353 22.5157 26.7212L21.044 27.3013C20.856 27.3872 20.7647 27.6075 20.8506 27.8008L23.9014 34.6866C23.982 34.8745 24.2076 34.9605 24.3955 34.8745Z"
              fill="white"></path>
    </symbol>
    <symbol fill="none" xmlns="http://www.w3.org/2000/svg" viewBox="0 0 55 55" id="secure">
        <path fill-rule="evenodd" clip-rule="evenodd"
              d="M28.5248 2.53356C27.8797 2.21098 27.1203 2.21098 26.4752 2.53356L8.14181 11.7002C7.36542 12.0884 6.875 12.8819 6.875 13.75V27.5C6.875 33.6008 8.84707 38.7092 12.3817 42.891C15.8796 47.0291 20.8191 50.1595 26.6324 52.5376C27.1883 52.7651 27.8117 52.7651 28.3676 52.5376C34.1809 50.1595 39.1204 47.0291 42.6184 42.891C46.153 38.7092 48.125 33.6008 48.125 27.5V13.75C48.125 12.8819 47.6346 12.0884 46.8582 11.7002L28.5248 2.53356ZM11.4583 27.5V15.1663L27.5 7.14545L43.5417 15.1663V27.5C43.5417 32.5244 41.949 36.583 39.1178 39.9322C36.4056 43.141 32.4777 45.7881 27.5 47.9315C22.5222 45.7881 18.5944 43.141 15.8821 39.9322C13.0511 36.583 11.4583 32.5244 11.4583 27.5ZM38.4019 22.1219C39.2285 21.1637 39.122 19.7166 38.1636 18.8898C37.2054 18.063 35.7583 18.1697 34.9314 19.128L24.6645 31.0282L19.938 26.3926C19.0344 25.5064 17.5835 25.5204 16.6972 26.424C15.811 27.3276 15.8251 28.7785 16.7287 29.6647L23.1992 36.011C23.6514 36.4544 24.2667 36.6909 24.8992 36.6646C25.5319 36.6382 26.1255 36.3513 26.5391 35.8719L38.4019 22.1219Z"
              fill="white"></path>
    </symbol>
    <symbol fill="none" xmlns="http://www.w3.org/2000/svg" viewBox="0 0 55 55" id="performance-graph">
        <path d="M54.8022 42.1118L49.9053 35.9537V10.0557C49.9053 8.80297 48.8893 7.78687 47.6364 7.78687H7.36259C6.10983 7.78687 5.0948 8.80286 5.0948 10.0557V35.9537L0.197012 42.1118C0.06875 42.2724 0 42.4711 0 42.6774V45.403C0 46.4032 0.809853 47.2129 1.80909 47.2129H53.19C54.1893 47.2129 55 46.4032 55 45.403V42.6774C55 42.4711 54.9303 42.2724 54.8022 42.1118ZM8.29501 10.9881H46.7041V32.7526H8.29501V10.9881ZM32.669 45.0604H22.331V42.3235H32.669V45.0604Z"
              fill="white"></path>
        <path d="M17.9903 26.3522H14.1865V30.156H17.9903V26.3522Z" fill="white"></path>
        <path d="M23.6961 22.5482H19.8923V30.1559H23.6961V22.5482Z" fill="white"></path>
        <path d="M29.402 20.6464H25.5981V30.156H29.402V20.6464Z" fill="white"></path>
        <path d="M35.1075 14.9407H31.3037V30.1561H35.1075V14.9407Z" fill="white"></path>
        <path d="M40.8133 18.7444H37.0095V30.1559H40.8133V18.7444Z" fill="white"></path>
    </symbol>
    <symbol fill="none" xmlns="http://www.w3.org/2000/svg" viewBox="0 0 55 55" id="loupe-search">
        <g clip-path="url(#clip0_1_188)">
            <path d="M29.084 12.5843C26.8801 10.3807 23.9503 9.16701 20.8338 9.16711C19.453 9.16711 18.3337 10.2865 18.3337 11.6671C18.334 13.0479 19.4531 14.1672 20.8339 14.1672C22.6147 14.1672 24.2889 14.8605 25.5482 16.1199C26.8075 17.3792 27.5009 19.0534 27.5009 20.8341C27.5007 22.2148 28.62 23.3342 30.0007 23.3342C30.0009 23.3342 30.0009 23.3342 30.0009 23.3342C31.3814 23.3342 32.5008 22.2151 32.501 20.8344C32.5011 17.718 31.2876 14.788 29.084 12.5843Z"
                  fill="white"></path>
            <path d="M54.2677 50.7323L37.2214 33.686C40.0058 30.1433 41.6684 25.6792 41.6684 20.8342C41.6683 9.34624 32.3222 0 20.834 0C20.8337 0 20.834 0 20.8337 0C15.2689 0 10.0369 2.16724 6.10221 6.10199C2.16702 10.0372 0 15.2691 0 20.8342C0 32.3222 9.34613 41.6683 20.834 41.6683C25.6791 41.6683 30.1433 40.0058 33.6859 37.2215L50.7321 54.2678C51.2203 54.7559 51.8602 55 52.5 55C53.1398 55 53.7797 54.756 54.2676 54.2677C55.2442 53.2916 55.2442 51.7085 54.2677 50.7323ZM20.834 36.6684C12.1032 36.6684 5.00006 29.5652 5.00006 20.8342C5.00006 16.6046 6.64705 12.6283 9.63768 9.63768C12.6283 6.64684 16.6045 5.00006 20.834 5.00006C29.5652 5.00006 36.6684 12.1032 36.6684 20.8343C36.6684 29.5653 29.5652 36.6684 20.834 36.6684Z"
                  fill="white"></path>
        </g>
        <defs>
            <clipPath id="clip0_1_188">
                <rect width="55" height="55" fill="white"></rect>
            </clipPath>
        </defs>
    </symbol>
    <symbol fill="none" xmlns="http://www.w3.org/2000/svg" viewBox="0 0 55 55" id="invoice">
        <path d="M9.82214 7.85742H41.2506V23.5716H45.179V3.92847H5.89319V51.0716H27.5006V47.1427H9.82214V7.85742Z"
              fill="#0B3D91"></path>
        <path d="M38.3034 25.8628L27.5 31.265V36.0045C27.5 41.9283 30.8467 47.3434 36.1448 49.9924L38.3034 51.0715L40.4621 49.9924C45.7601 47.3434 49.1068 41.9283 49.1068 36.0045V31.265L38.3034 25.8628ZM45.1784 36.004C45.1784 40.4684 42.698 44.4817 38.7052 46.4781L38.3034 46.679L37.9017 46.4781C33.9088 44.4817 31.4284 40.4679 31.4284 36.004V33.6928L38.3034 30.2553L45.1784 33.6928V36.004Z"
              fill="#0B3D91"></path>
        <path d="M35.3348 36.6959L33.3835 38.9039L38.392 43.3313L44.5113 36.2903L42.2882 34.3567L38.1181 39.1553L35.3348 36.6959ZM13.75 13.75H37.3216V17.6784H13.75V13.75ZM13.75 23.5716H29.4642V27.5H13.75V23.5716ZM13.75 33.3926H21.6074V37.321H13.75V33.3926Z"
              fill="#0B3D91"></path>
    </symbol>
    <symbol fill="none" xmlns="http://www.w3.org/2000/svg" viewBox="0 0 55 55" id="communication-bubble-chat">
        <path fill-rule="evenodd" clip-rule="evenodd"
              d="M17.5749 39.1862L7.7025 45.075L9.3973 34.9657C5.29023 31.5783 3 26.8857 3 21.7C3 11.3723 12.0841 3 26.5125 3C40.9409 3 50.025 11.3723 50.025 21.7C50.025 32.0277 40.9409 40.4 26.5125 40.4C23.2447 40.4 20.251 39.9705 17.5749 39.1862Z"
              stroke="#0B3D91" stroke-width="4" stroke-linecap="round" stroke-linejoin="round"></path>
        <path d="M48.9251 27.75C51.2269 30.0356 52.5 33.0638 52.5 36.3854C52.5 39.9604 51.0253 43.1955 48.3806 45.5307L49.4719 52.5L43.1147 48.4403C41.3915 48.981 39.4638 49.2771 37.3595 49.2771C29.7809 49.2771 24.4921 45.4368 22.8 40.1571"
              stroke="#0B3D91" stroke-width="4" stroke-linecap="round" stroke-linejoin="round"></path>
    </symbol>
    <symbol fill="none" xmlns="http://www.w3.org/2000/svg" viewBox="0 0 55 55" id="data-center">
        <path d="M52.5603 48.3647L46.7264 42.5308C48.345 40.4054 49.3193 37.7615 49.3193 34.8936C49.3141 31.541 47.9794 28.3272 45.6079 25.9572C43.2365 23.5873 40.0219 22.2546 36.6693 22.2515C33.318 22.2567 30.1054 23.5903 27.7357 25.96C25.3659 28.3298 24.0323 31.5423 24.0271 34.8936C24.0302 38.247 25.3635 41.4621 27.7343 43.8337C30.1051 46.2052 33.3198 47.5395 36.6732 47.5436C39.545 47.5436 42.1889 46.5693 44.3103 44.9508L50.1443 50.7808C50.3017 50.9401 50.4892 51.0665 50.6959 51.1528C50.9026 51.2391 51.1244 51.2836 51.3484 51.2836C51.5724 51.2836 51.7941 51.2391 52.0008 51.1528C52.2075 51.0665 52.395 50.9401 52.5525 50.7808C52.712 50.6229 52.8389 50.435 52.9256 50.228C53.0124 50.021 53.0575 49.7988 53.0582 49.5744C53.0589 49.3499 53.0153 49.1275 52.9299 48.9199C52.8445 48.7123 52.7189 48.5236 52.5603 48.3647ZM27.441 34.8936C27.4442 32.4461 28.4178 30.0996 30.1485 28.369C31.8792 26.6383 34.2256 25.6646 36.6732 25.6615C39.1217 25.6615 41.4699 26.6342 43.2013 28.3655C44.9327 30.0969 45.9053 32.4451 45.9053 34.8936C45.9053 37.3421 44.9327 39.6904 43.2013 41.4217C41.4699 43.1531 39.1217 44.1258 36.6732 44.1258C34.226 44.1216 31.8801 43.1476 30.1497 41.4171C28.4192 39.6867 27.4452 37.3409 27.441 34.8936ZM41.9571 14.5633C41.9571 15.5061 41.191 16.2683 40.2482 16.2683H23.1707C22.7185 16.2683 22.2848 16.0886 21.9651 15.7689C21.6453 15.4491 21.4657 15.0155 21.4657 14.5633C21.4657 14.1111 21.6453 13.6774 21.9651 13.3577C22.2848 13.0379 22.7185 12.8583 23.1707 12.8583H40.2482C41.191 12.8583 41.9571 13.6204 41.9571 14.5633ZM9.22426 47.8658H20.6093C21.0425 47.8952 21.4484 48.088 21.7448 48.4052C22.0413 48.7225 22.2062 49.1405 22.2062 49.5747C22.2062 50.0089 22.0413 50.4269 21.7448 50.7442C21.4484 51.0614 21.0425 51.2542 20.6093 51.2836H9.22426C6.08926 51.2836 3.52783 48.7301 3.52783 45.5872V15.2036C3.52783 14.4376 3.80283 13.6951 4.2939 13.1058L12.9132 2.8522C13.2022 2.5082 13.563 2.23153 13.9701 2.04152C14.3773 1.85151 14.821 1.75277 15.2703 1.7522H43.0925C46.2314 1.7522 48.7889 4.30577 48.7889 7.44863V19.6822C48.7889 20.1354 48.6089 20.5701 48.2884 20.8906C47.9679 21.2111 47.5332 21.3911 47.08 21.3911C46.6267 21.3911 46.1921 21.2111 45.8716 20.8906C45.5511 20.5701 45.371 20.1354 45.371 19.6822V7.4447C45.37 6.84242 45.1306 6.26505 44.7051 5.83881C44.2796 5.41257 43.7026 5.17213 43.1003 5.17005H18.0478V15.0465C18.0406 15.7665 17.7484 16.4543 17.2352 16.9594C16.722 17.4645 16.0296 17.7457 15.3096 17.7415H6.94962V45.5911C6.94962 46.8443 7.97105 47.8658 9.22426 47.8658ZM14.6339 6.11291L7.7314 14.3236H14.6339V6.11291ZM18.9043 31.6879C19.3575 31.6879 19.7922 31.5079 20.1127 31.1874C20.4331 30.8669 20.6132 30.4322 20.6132 29.979C20.6132 29.5257 20.4331 29.0911 20.1127 28.7706C19.7922 28.4501 19.3575 28.2701 18.9043 28.2701H12.925C12.4717 28.2701 12.0371 28.4501 11.7166 28.7706C11.3961 29.0911 11.216 29.5257 11.216 29.979C11.216 30.4322 11.3961 30.8669 11.7166 31.1874C12.0371 31.5079 12.4717 31.6879 12.925 31.6879H18.9043ZM18.9043 39.5333C19.357 39.5333 19.7912 39.3534 20.1113 39.0333C20.4314 38.7132 20.6112 38.279 20.6112 37.8263C20.6112 37.3736 20.4314 36.9394 20.1113 36.6193C19.7912 36.2992 19.357 36.1193 18.9043 36.1193H12.925C12.4723 36.1193 12.0381 36.2992 11.718 36.6193C11.3979 36.9394 11.218 37.3736 11.218 37.8263C11.218 38.279 11.3979 38.7132 11.718 39.0333C12.0381 39.3534 12.4723 39.5333 12.925 39.5333H18.9043ZM20.6093 20.5622H12.925C12.4723 20.5622 12.0381 20.742 11.718 21.0622C11.3979 21.3823 11.218 21.8164 11.218 22.2692C11.218 22.7219 11.3979 23.156 11.718 23.4762C12.0381 23.7963 12.4723 23.9761 12.925 23.9761H20.6093C21.062 23.9761 21.4962 23.7963 21.8163 23.4762C22.1364 23.156 22.3162 22.7219 22.3162 22.2692C22.3162 21.8164 22.1364 21.3823 21.8163 21.0622C21.4962 20.742 21.062 20.5622 20.6093 20.5622Z"
              fill="#0B3D91"></path>
    </symbol>
    <symbol fill="none" xmlns="http://www.w3.org/2000/svg" viewBox="0 0 55 55" id="laptop">
        <path d="M16.6594 16.6593L19.4792 19.4792M48.125 36.6667V16.5C48.125 13.9331 48.125 12.6496 47.6254 11.6692C47.1861 10.8068 46.4849 10.1056 45.6225 9.66623C44.6422 9.16667 43.3586 9.16667 40.7917 9.16667H28.6459M6.87504 36.6667V28.6458M18.3334 12.6042C18.3334 15.7683 15.7683 18.3333 12.6042 18.3333C9.44008 18.3333 6.87504 15.7683 6.87504 12.6042C6.87504 9.44004 9.44008 6.875 12.6042 6.875C15.7683 6.875 18.3334 9.44004 18.3334 12.6042ZM50.4167 36.6667V38.5C50.4167 41.0669 50.4167 42.3505 49.9171 43.3308C49.4778 44.1932 48.7766 44.8944 47.9142 45.3337C46.9338 45.8333 45.6503 45.8333 43.0834 45.8333H11.9167C9.34981 45.8333 8.06634 45.8333 7.08592 45.3337C6.2235 44.8944 5.52234 44.1932 5.08293 43.3308C4.58337 42.3505 4.58337 41.0669 4.58337 38.5V36.6667H19.1063C19.6668 36.6667 19.947 36.6667 20.2108 36.7299C20.4446 36.7861 20.6681 36.8786 20.8732 37.0045C21.1045 37.1461 21.3026 37.3443 21.699 37.7405L21.8428 37.8845C22.2391 38.2807 22.4373 38.4789 22.6686 38.6205C22.8736 38.7464 23.0971 38.8389 23.331 38.8951C23.5948 38.9583 23.8751 38.9583 24.4354 38.9583H30.5647C31.125 38.9583 31.4053 38.9583 31.669 38.8951C31.903 38.8389 32.1265 38.7464 32.3316 38.6205C32.5628 38.4789 32.761 38.2807 33.1572 37.8845L33.3012 37.7405C33.6974 37.3443 33.8956 37.1461 34.1268 37.0045C34.332 36.8786 34.5554 36.7861 34.7894 36.7299C35.0531 36.6667 35.3334 36.6667 35.8937 36.6667H50.4167Z"
              stroke="#0B3D91" stroke-width="4" stroke-linecap="round" stroke-linejoin="round"></path>
    </symbol>
    <symbol fill="none" xmlns="http://www.w3.org/2000/svg" viewBox="0 0 60 60" id="connection">
        <path d="M37.5 22.5V26.25H26.25C24.2609 26.25 22.3532 27.0402 20.9467 28.4467C19.5402 29.8532 18.75 31.7609 18.75 33.75V41.25C18.75 43.2391 19.5402 45.1468 20.9467 46.5533C22.3532 47.9598 24.2609 48.75 26.25 48.75H45C46.9891 48.75 48.8968 47.9598 50.3033 46.5533C51.7098 45.1468 52.5 43.2391 52.5 41.25V33.75C52.5 32.4335 52.1534 31.1402 51.4951 30.0001C50.8369 28.86 49.8901 27.9132 48.75 27.255V23.1375C53.1188 24.6825 56.25 28.8487 56.25 33.7462V41.2463C56.25 44.2299 55.0647 47.0914 52.955 49.2012C50.8452 51.311 47.9837 52.4963 45 52.4963H26.25C23.2663 52.4963 20.4048 51.311 18.295 49.2012C16.1853 47.0914 15 44.2299 15 41.2463V33.75C15 30.7663 16.1853 27.9048 18.295 25.795C20.4048 23.6853 23.2663 22.5 26.25 22.5H37.5Z"
              fill="white"></path>
        <path d="M22.5 37.5V33.75H33.75C35.7391 33.75 37.6468 32.9598 39.0533 31.5533C40.4598 30.1468 41.25 28.2391 41.25 26.25V18.75C41.25 16.7609 40.4598 14.8532 39.0533 13.4467C37.6468 12.0402 35.7391 11.25 33.75 11.25H15C13.0109 11.25 11.1032 12.0402 9.6967 13.4467C8.29018 14.8532 7.5 16.7609 7.5 18.75V26.25C7.50003 27.5665 7.8466 28.8598 8.50486 29.9999C9.16312 31.14 10.1099 32.0868 11.25 32.745V36.8625C9.05597 36.0862 7.15658 34.6488 5.8134 32.7482C4.47022 30.8476 3.74933 28.5773 3.75 26.25V18.75C3.75 15.7663 4.93526 12.9048 7.04505 10.795C9.15483 8.68526 12.0163 7.5 15 7.5H33.75C36.7337 7.5 39.5952 8.68526 41.705 10.795C43.8147 12.9048 45 15.7663 45 18.75V26.25C45 29.2337 43.8147 32.0952 41.705 34.205C39.5952 36.3147 36.7337 37.5 33.75 37.5H22.5Z"
              fill="white"></path>
    </symbol>
    <symbol fill="none" xmlns="http://www.w3.org/2000/svg" viewBox="0 0 60 60" id="partnership">
        <path d="M18.188 28.3637C15.7927 28.3637 13.7098 27.3512 12.0434 25.8324C10.4813 24.3136 9.54395 22.1873 9.54395 19.8585C9.54395 17.5297 10.4813 15.5047 12.0434 13.9859C13.7098 12.4671 15.7927 11.4546 18.188 11.4546C20.5834 11.4546 22.7704 12.4671 24.3326 13.9859C25.8948 15.5047 26.8321 17.5297 26.8321 19.8585C26.8321 22.1873 25.8948 24.3136 24.3326 25.8324C22.7704 27.3512 20.5834 28.3637 18.188 28.3637ZM14.4388 23.6048C15.3761 24.5161 16.73 25.1236 18.188 25.1236C19.646 25.1236 20.9999 24.5161 22.0414 23.6048C22.9787 22.5923 23.6036 21.3773 23.6036 19.8585C23.6036 18.441 22.9787 17.1247 22.0414 16.2134C20.9999 15.3022 19.646 14.6947 18.188 14.6947C16.73 14.6947 15.3761 15.3022 14.4388 16.2134C13.5015 17.1247 12.8766 18.441 12.8766 19.8585C12.8766 21.3773 13.5015 22.5923 14.4388 23.6048Z"
              fill="white"></path>
        <path d="M18.2579 52.9091H5.58147C4.73007 52.9091 4.06787 51.6087 4.06787 49.9367V41.3913C4.06787 34.332 7.94647 29.8735 12.7711 28.2016C14.5685 27.6442 16.4605 27.2727 18.2579 27.2727C20.1499 27.2727 22.0419 27.6442 23.7447 28.2016C28.6638 29.8735 32.5424 34.332 32.5424 41.3913V49.9367C32.5424 51.6087 31.7856 52.9091 31.0288 52.9091H18.2579ZM7.09507 46.9644H29.5152V41.3913C29.5152 37.8616 26.7718 35.2608 23.1771 33.9605C21.6635 33.4031 19.9607 33.2174 18.2579 33.2174C16.5551 33.2174 14.8523 33.4031 13.3387 33.9605C9.83847 35.2608 7.09507 37.8616 7.09507 41.3913V46.9644Z"
              fill="white"></path>
        <path d="M41.6949 28.9091C39.4405 28.9091 37.3821 27.9619 35.9118 26.5411C34.4415 25.1203 33.5593 23.1312 33.5593 20.9527C33.5593 18.7741 34.4415 16.8797 35.9118 15.4589C37.3821 14.0381 39.4405 13.0909 41.6949 13.0909C43.9494 13.0909 46.0078 14.0381 47.4781 15.4589C48.9483 16.8797 49.8305 18.7741 49.8305 20.9527C49.8305 23.1312 48.9483 25.1203 47.4781 26.5411C46.0078 27.9619 43.9494 28.9091 41.6949 28.9091ZM38.1662 24.4573C39.0484 25.3098 40.3227 25.8781 41.6949 25.8781C43.0672 25.8781 44.3414 25.3098 45.2236 24.4573C46.2038 23.5101 46.6939 22.3735 46.6939 20.9527C46.6939 19.6266 46.2038 18.3952 45.2236 17.5428C44.3414 16.6903 43.0672 16.122 41.6949 16.122C40.3227 16.122 39.0484 16.6903 38.1662 17.5428C37.186 18.3952 36.6959 19.6266 36.6959 20.9527C36.6959 22.3735 37.186 23.5101 38.1662 24.4573Z"
              fill="white"></path>
        <path d="M41.4407 51.2727H29.8577C29.0797 51.2727 28.4746 50.1107 28.4746 48.6166V40.9802C28.4746 34.6719 31.9322 30.6878 36.4272 29.1937C38.0695 28.6957 39.7983 28.3636 41.4407 28.3636C43.1695 28.3636 44.8119 28.6957 46.4543 29.1937C50.9492 30.6878 54.4068 34.6719 54.4068 40.9802V48.6166C54.4068 50.1107 53.8017 51.2727 53.0238 51.2727H41.4407ZM31.2407 45.9605H51.6407V40.9802C51.6407 37.8261 49.1339 35.502 45.9356 34.3399C44.5526 33.8419 42.9966 33.6759 41.4407 33.6759C39.8848 33.6759 38.3288 33.8419 36.9458 34.3399C33.7475 35.502 31.2407 37.8261 31.2407 40.9802V45.9605Z"
              fill="white"></path>
    </symbol>
    <symbol fill="none" xmlns="http://www.w3.org/2000/svg" viewBox="0 0 40 29" id="menu">
        <line x1="7.58691" y1="4.93939" x2="38.5" y2="4.93939" stroke="#0B3D91" stroke-width="3"
              stroke-linecap="round"></line>
        <line x1="7.58691" y1="21.9091" x2="38.5" y2="21.9091" stroke="#0B3D91" stroke-width="3"
              stroke-linecap="round"></line>
        <line x1="17.1521" y1="13.4242" x2="38.4999" y2="13.4242" stroke="#0B3D91" stroke-width="3"
              stroke-linecap="round"></line>
    </symbol>
    <symbol fill="none" xmlns="http://www.w3.org/2000/svg" viewBox="0 0 40 40" id="close">
        <path d="M30 10L10 30" stroke="white" stroke-width="3" stroke-linecap="round" stroke-linejoin="round"></path>
        <path d="M10 10L30 30" stroke="white" stroke-width="3" stroke-linecap="round" stroke-linejoin="round"></path>
    </symbol>
    <symbol fill="none" xmlns="http://www.w3.org/2000/svg" viewBox="0 0 20 20" id="youtube">
        <g opacity="0.8">
            <path fill-rule="evenodd" clip-rule="evenodd"
                  d="M15.1499 3.75039C14.2999 3.70039 12.5499 3.65039 9.8999 3.65039H9.5499C6.9999 3.65039 5.29992 3.70039 4.44992 3.80039C3.29992 3.90039 2.4999 4.20039 2.0499 4.60039C1.6499 4.95039 1.34991 5.60039 1.24991 6.45039C1.19991 7.00039 1.1499 8.15039 1.1499 9.90039V10.1504C1.1499 11.8004 1.1999 12.9504 1.2999 13.5004C1.4499 14.3004 1.69992 14.9004 2.19992 15.2504C2.69992 15.6504 3.54991 15.9004 4.74991 16.0004C5.59991 16.0504 7.34991 16.1004 9.99991 16.1004H10.3499C12.8999 16.1004 14.5999 16.0504 15.4499 15.9504C16.5999 15.8504 17.3999 15.5504 17.8499 15.1504C18.2499 14.8004 18.5499 14.1504 18.6499 13.3004C18.6999 12.7504 18.7499 11.6004 18.7499 9.85039V9.60039C18.7499 7.95039 18.6999 6.80039 18.5999 6.25039C18.4499 5.45039 18.1999 4.85039 17.6999 4.50039C17.1999 4.10039 16.3499 3.85039 15.1499 3.75039ZM13.1999 9.90039L7.69992 13.2004V6.60039L13.1999 9.90039Z"
                  fill="white"></path>
        </g>
    </symbol>
    <symbol fill="none" xmlns="http://www.w3.org/2000/svg" viewBox="0 0 20 20" id="instagram">
        <g opacity="0.8">
            <path d="M17.9485 6.72248C17.9387 6.051 17.8143 5.38485 17.5762 4.75685C17.1595 3.68444 16.311 2.83646 15.2368 2.42133C14.6157 2.18805 13.9591 2.06298 13.2945 2.04879C12.4398 2.01064 12.1688 2 9.99911 2C7.82941 2 7.55131 2 6.7028 2.04879C6.03909 2.06298 5.3825 2.18805 4.76144 2.42133C3.68725 2.83646 2.83785 3.68444 2.42203 4.75685C2.18836 5.37687 2.06219 6.03238 2.04976 6.69498C2.01155 7.54917 2 7.81972 2 9.98581C2 12.1519 2 12.4287 2.04976 13.2766C2.06308 13.9401 2.18836 14.5947 2.42203 15.2165C2.83874 16.2881 3.68725 17.136 4.76233 17.5512C5.38072 17.7924 6.03732 17.929 6.70369 17.9503C7.55931 17.9885 7.8303 18 10 18C12.1697 18 12.4478 18 13.2963 17.9503C13.96 17.937 14.6166 17.812 15.2386 17.5787C16.3127 17.1627 17.1613 16.3147 17.578 15.2432C17.8116 14.6222 17.9369 13.9676 17.9502 13.3033C17.9884 12.4499 18 12.1794 18 10.0124C17.9982 7.84633 17.9982 7.57135 17.9485 6.72248ZM9.99378 14.0821C7.72457 14.0821 5.88627 12.2468 5.88627 9.98137C5.88627 7.71593 7.72457 5.8807 9.99378 5.8807C12.2612 5.8807 14.1013 7.71593 14.1013 9.98137C14.1013 12.2468 12.2612 14.0821 9.99378 14.0821ZM14.2648 6.68522C13.7343 6.68522 13.307 6.25768 13.307 5.72902C13.307 5.20036 13.7343 4.77281 14.2648 4.77281C14.7934 4.77281 15.2217 5.20036 15.2217 5.72902C15.2217 6.25768 14.7934 6.68522 14.2648 6.68522Z"
                  fill="white"></path>
            <path d="M9.99518 12.4855C11.3773 12.4855 12.4977 11.3651 12.4977 9.98297C12.4977 8.60088 11.3773 7.48047 9.99518 7.48047C8.61308 7.48047 7.49268 8.60088 7.49268 9.98297C7.49268 11.3651 8.61308 12.4855 9.99518 12.4855Z"
                  fill="white"></path>
        </g>
    </symbol>
    <symbol fill="none" xmlns="http://www.w3.org/2000/svg" viewBox="0 0 20 20" id="facebook">
        <g opacity="0.8">
            <path d="M12.2 2.89961C12.35 2.89961 12.5 2.89961 12.8 2.89961V5.14961C12.65 5.14961 12.35 5.14961 12.05 5.14961C11.75 5.14961 11.45 5.14961 11.3 5.29961C11.15 5.44961 11.15 5.59961 11.15 5.94961C11.15 6.24961 11.15 6.44961 11.15 6.74961H12.8V8.64961H11.15V16.8996H8.60001V8.59961H7.25V6.69961H8.60001V6.04961C8.60001 4.94961 8.75 4.14961 9.05 3.79961C9.5 3.14961 10.4 2.84961 11.75 2.84961C11.9 2.89961 12.05 2.89961 12.2 2.89961Z"
                  fill="white"></path>
        </g>
    </symbol>

    <symbol fill="none" xmlns="http://www.w3.org/2000/svg" viewBox="0 0 20 20" id="check">
        <path d="M16.6668 5L7.50016 14.1667L3.3335 10" stroke="white" stroke-width="2" stroke-linecap="round"
              stroke-linejoin="round"></path>
    </symbol>

</svg>